<svg version="1.1" id="Layer_1" xmlns="http://www.w3.org/2000/svg" xmlns:xlink="http://www.w3.org/1999/xlink" x="0px" y="0px"
	 width="200px" viewBox="0 0 960 960" enable-background="new 0 0 960 960" xml:space="preserve">
<path fill="#FCD116" opacity="1.000000" stroke="none" 
	d="
M484.000000,961.000000 
	C482.610992,961.000000 481.222015,961.000000 479.746033,960.751282 
	C476.020294,956.082764 472.502502,951.556396 468.719879,947.263306 
	C457.839996,934.915222 446.817017,922.693054 435.965363,910.320374 
	C434.902771,909.108948 434.004272,907.156311 434.108643,905.621094 
	C434.585846,898.603027 435.374451,891.602600 436.188934,884.611877 
	C437.398407,874.231018 438.797577,863.872009 439.974823,853.487671 
	C440.787262,846.321106 441.263245,839.116577 442.064209,831.948486 
	C443.297516,820.911682 444.738068,809.897949 445.979370,798.861938 
	C446.766876,791.860718 447.247681,784.824707 448.053009,777.825867 
	C449.283905,767.127991 450.670166,756.447937 452.002228,745.761719 
	C452.931061,738.309998 453.970886,730.870667 454.788452,723.406921 
	C455.372009,718.079346 455.668854,712.720337 456.078522,707.565735 
	C450.974487,706.816650 446.480896,706.056335 441.957520,705.577759 
	C441.043793,705.481140 439.385803,706.252502 439.160919,706.966736 
	C438.485107,709.113831 438.385559,711.437012 437.994080,713.679749 
	C435.814880,726.163940 433.618622,738.645203 431.422729,751.126526 
	C429.285431,763.274780 427.126923,775.419434 425.004547,787.570374 
	C422.826416,800.040588 420.696716,812.519287 418.515930,824.989075 
	C416.699554,835.375244 414.840424,845.753845 412.999298,856.135742 
	C411.234161,866.088989 409.467773,876.042053 407.593018,886.609009 
	C406.318665,885.591980 405.582031,885.195435 405.103607,884.593689 
	C397.505768,875.036682 390.135773,865.287903 382.235931,855.988831 
	C380.184235,853.573730 379.360077,851.532715 380.080780,848.775146 
	C386.858643,822.840149 393.702087,796.922363 400.499573,770.992493 
	C406.663330,747.480225 412.793427,723.959106 418.741486,701.195435 
	C402.550690,694.660828 386.768188,688.290955 370.691193,681.802246 
	C358.176239,702.870056 345.462799,724.468750 332.552948,745.949463 
	C319.465485,767.725769 306.071472,789.318604 293.097626,811.161682 
	C290.922577,814.823608 288.458374,815.949158 284.495422,816.100037 
	C279.120178,816.304749 273.779236,817.291931 268.410004,817.800354 
	C261.015198,818.500610 253.607697,819.067017 245.366043,819.761414 
	C281.553619,769.330017 317.309082,719.500732 352.974945,669.796387 
	C348.111908,666.294373 343.752319,663.154846 339.205078,659.880188 
	C338.433502,661.301270 338.089447,662.240479 337.497040,662.980896 
	C325.355194,678.156433 313.193512,693.316162 301.018280,708.464905 
	C285.909515,727.263794 270.766052,746.034790 255.672852,764.846130 
	C242.308289,781.503052 229.060684,798.254761 215.549606,814.791626 
	C214.177933,816.470398 211.397232,817.727905 209.187668,817.866943 
	C199.111221,818.501404 189.005264,818.667542 178.909775,818.998230 
	C177.910828,819.030945 176.908005,818.994873 175.912109,819.064209 
	C164.438950,819.862976 152.966751,820.675964 141.394470,821.492249 
	C141.974579,814.105042 142.625549,807.587341 142.971024,801.053528 
	C143.729492,786.709351 144.133072,772.343140 145.125595,758.016602 
	C145.413406,753.862061 145.154251,749.275146 149.367645,746.062439 
	C160.481293,737.588135 171.394012,728.848816 182.334152,720.148926 
	C192.805374,711.821777 203.190277,703.386169 213.649765,695.044250 
	C226.277100,684.973389 238.938110,674.944702 251.593552,664.909180 
	C262.594849,656.185425 273.642700,647.520081 284.603912,638.746338 
	C290.793518,633.791870 296.849792,628.670837 302.939087,623.647156 
	C299.605560,619.190186 296.510925,615.052673 293.063995,610.444153 
	C242.747452,645.703369 192.633835,680.820374 141.482162,716.664795 
	C142.129135,712.354858 142.685684,709.473083 142.976151,706.564697 
	C144.034912,695.963074 144.872055,685.336609 146.140457,674.761230 
	C146.348907,673.023071 147.945694,670.887756 149.508575,669.962341 
	C166.077805,660.150391 182.797806,650.593689 199.421646,640.873291 
	C220.384079,628.616028 241.308136,616.292969 262.222076,603.953125 
	C268.893219,600.017029 275.479492,595.937195 281.882324,592.057861 
	C280.726501,589.994141 279.689911,588.510986 279.014008,586.878418 
	C273.647675,573.916931 268.251495,560.965698 263.123199,547.909729 
	C262.217316,545.603455 261.671631,544.752258 259.026764,545.429688 
	C236.314499,551.247009 213.570206,556.940063 190.821609,562.614685 
	C163.601349,569.404785 136.367508,576.140381 109.753616,582.747192 
	C103.572800,577.811096 97.911552,573.384766 92.357666,568.827698 
	C86.843880,564.303467 81.438095,559.647583 75.342583,554.507874 
	C77.557152,553.894836 79.147820,553.288940 80.793297,553.025757 
	C92.042999,551.226379 103.317039,549.576965 114.558365,547.728027 
	C127.706078,545.565552 140.819321,543.193909 153.964661,541.016602 
	C165.202805,539.155212 176.473969,537.493591 187.714554,535.646484 
	C200.862091,533.485962 213.982864,531.162109 227.133286,529.019897 
	C236.135269,527.553406 245.189102,526.392334 254.160507,524.767639 
	C255.279266,524.565063 256.918884,522.266907 256.800232,521.093018 
	C256.365326,516.789490 255.289795,512.550720 254.367737,507.839386 
	C245.915817,508.576965 237.429520,509.166290 228.980240,510.093231 
	C218.434296,511.250153 207.931244,512.796509 197.386765,513.968445 
	C186.957474,515.127625 176.490082,515.941406 166.056946,517.069092 
	C154.844086,518.281006 143.656372,519.723633 132.448563,520.984680 
	C125.610001,521.754150 118.745918,522.297607 111.908134,523.073242 
	C100.871056,524.325439 89.842728,525.657104 78.817406,527.009888 
	C71.385880,527.921631 63.976051,529.024170 56.531776,529.805847 
	C55.105759,529.955505 53.251030,529.394958 52.134121,528.493164 
	C48.555996,525.604187 45.212894,522.421448 41.812317,519.315674 
	C30.112980,508.630798 18.465036,497.889069 6.693000,487.284973 
	C5.100837,485.850830 2.912368,485.078674 1.000001,484.000000 
	C1.000000,482.610992 1.000000,481.222015 1.248701,479.746002 
	C8.995125,473.278046 16.572432,466.987762 23.970697,460.493530 
	C33.489990,452.137573 42.830803,443.578186 52.356792,435.230042 
	C53.320381,434.385620 55.060177,433.970825 56.385326,434.071686 
	C63.241653,434.593567 70.089905,435.263367 76.922844,436.040894 
	C87.947197,437.295288 98.952568,438.716003 109.975357,439.984833 
	C116.647499,440.752899 123.344810,441.301849 130.017578,442.065033 
	C141.055466,443.327454 152.076996,444.733429 163.116409,445.981842 
	C170.124451,446.774353 177.162399,447.303619 184.169022,448.107208 
	C194.865479,449.333862 205.547775,450.684875 216.233536,452.003784 
	C223.686356,452.923706 231.124969,453.969147 238.588730,454.786743 
	C243.916794,455.370361 249.276062,455.668884 254.435165,456.079803 
	C255.182358,450.978363 255.967926,446.486206 256.396393,441.960297 
	C256.482971,441.045959 255.430939,439.530304 254.529236,439.124817 
	C252.946823,438.413147 251.081039,438.308258 249.323151,438.013641 
	C229.278854,434.654419 209.212646,431.421234 189.192627,427.923462 
	C171.118408,424.765656 153.106430,421.253235 135.044464,418.023285 
	C115.426895,414.515198 95.783295,411.152649 75.598305,407.630188 
	C76.312408,406.587982 76.621704,405.808167 77.190987,405.354736 
	C86.615173,397.848145 96.198883,390.534515 105.445412,382.816498 
	C108.272461,380.456787 110.575592,379.556915 114.262833,380.555115 
	C136.256790,386.509216 158.308502,392.252228 180.366730,397.966125 
	C207.389282,404.966003 234.437286,411.867645 260.836609,418.647949 
	C267.244568,402.712585 273.609100,386.885162 280.130859,370.666809 
	C265.988953,362.306519 251.074799,353.626556 236.295181,344.723297 
	C207.299469,327.256287 178.359268,309.696594 149.480225,292.037720 
	C147.926346,291.087555 146.414032,288.983490 146.146149,287.224121 
	C145.405685,282.361420 145.407349,277.390442 144.982864,272.473724 
	C144.362411,265.286743 143.653427,258.106934 142.918167,250.930634 
	C142.756866,249.356506 142.326538,247.809937 141.779770,245.027771 
	C192.765442,281.611511 242.545502,317.330200 292.198761,352.957886 
	C295.656158,348.163239 298.809875,343.789703 301.821655,339.613007 
	C296.255859,334.999023 291.178528,330.639404 285.943420,326.478363 
	C270.125458,313.905914 254.203140,301.464600 238.403900,288.868835 
	C224.508011,277.790527 210.772354,266.511200 196.876236,255.433197 
	C181.113159,242.866852 165.207108,230.479630 149.472931,217.877548 
	C146.826050,215.757568 144.065079,213.600967 143.935272,209.422653 
	C143.432449,193.237640 142.719223,177.058365 141.973557,160.882080 
	C141.688293,154.693756 141.105484,148.519150 140.598984,141.518829 
	C147.999802,142.062042 154.377609,142.651093 160.768860,142.974854 
	C175.452820,143.718689 190.152969,144.179001 204.825241,145.095337 
	C209.169113,145.366638 213.186844,145.918015 216.469406,150.514572 
	C224.327911,161.518875 233.284195,171.738419 241.780838,182.288040 
	C250.171173,192.705658 258.572693,203.114517 266.912079,213.572830 
	C276.974030,226.191391 286.964325,238.867035 297.006927,251.501083 
	C305.654541,262.380157 314.315582,273.248657 323.002533,284.096344 
	C328.073486,290.428589 333.206940,296.710785 338.287933,302.985443 
	C342.776245,299.632294 346.919342,296.537079 351.539520,293.085480 
	C316.310730,242.757172 281.206757,192.607178 245.527786,141.635742 
	C249.444901,142.188507 252.308502,142.698959 255.194427,142.980865 
	C265.964233,144.032852 276.761688,144.845627 287.496002,146.174561 
	C289.314087,146.399658 291.435089,148.391464 292.463013,150.130402 
	C302.170105,166.552094 311.596924,183.139099 321.248352,199.594116 
	C334.428375,222.065155 347.730072,244.464828 360.988831,266.889648 
	C363.992126,271.969208 367.033112,277.026489 369.935211,281.890320 
	C371.546173,281.004120 372.492035,280.373352 373.519989,279.935120 
	C385.987427,274.620453 398.397308,269.160706 410.972260,264.112488 
	C417.398621,261.532623 417.472534,261.887695 415.866791,255.558868 
	C404.259460,209.809952 392.644409,164.062927 381.164948,118.281914 
	C380.352051,115.039932 379.075043,110.391556 380.610138,108.337112 
	C388.951813,97.173317 398.109100,86.618988 407.928284,74.711708 
	C418.078491,136.323166 428.016510,196.646622 437.978485,257.115509 
	C443.969635,256.188721 449.256439,255.370911 454.331207,254.585876 
	C454.222015,253.188782 454.137451,251.767548 453.996033,250.351974 
	C452.987030,240.251633 452.059387,230.141983 450.924194,220.055740 
	C449.720764,209.363358 448.236053,198.702667 447.028168,188.010727 
	C446.199982,180.680237 445.733795,173.309174 444.929504,165.975586 
	C443.699493,154.759644 442.276581,143.564972 441.014954,132.352341 
	C440.245514,125.513992 439.716125,118.648216 438.916565,111.813751 
	C437.684204,101.279083 436.304565,90.761681 435.002625,80.235069 
	C434.022675,72.311897 432.973755,64.394989 432.186005,56.452438 
	C432.045258,55.033039 432.627319,53.152176 433.559998,52.079380 
	C439.603271,45.128250 445.806824,38.315235 452.014313,31.508415 
	C459.568481,23.224863 467.235840,15.043549 474.713440,6.691989 
	C476.143799,5.094456 476.921326,2.912395 478.000000,1.000003 
	C479.389008,1.000000 480.777985,1.000000 482.244049,1.239651 
	C485.957581,5.895631 489.473328,10.418335 493.253418,14.708119 
	C504.129852,27.051104 515.148560,39.268856 525.998413,51.634872 
	C527.064209,52.849606 527.897583,54.749695 527.891846,56.328224 
	C527.877625,60.249641 527.412659,64.180412 526.955322,68.087128 
	C525.683960,78.947556 524.272461,89.791641 523.018433,100.653984 
	C522.229187,107.490349 521.701294,114.356819 520.917969,121.193947 
	C519.672607,132.062698 518.251465,142.911392 517.021423,153.781784 
	C516.210205,160.950302 515.704285,168.153519 514.881409,175.320496 
	C513.672119,185.852753 512.309753,196.367493 510.997253,206.887787 
	C510.047424,214.500961 508.955811,222.098541 508.140686,229.725876 
	C507.257263,237.992310 506.621216,246.285156 505.898132,254.334747 
	C511.104065,255.219543 515.715149,256.099365 520.362366,256.698761 
	C521.140381,256.799103 522.614990,255.842926 522.835632,255.098602 
	C523.477173,252.934631 523.614502,250.624939 524.004395,248.381973 
	C526.174988,235.895538 528.372375,223.413757 530.540222,210.926849 
	C532.706421,198.449585 534.827576,185.964462 537.007019,173.489517 
	C539.129272,161.342255 541.306763,149.204666 543.448242,137.060760 
	C545.307800,126.515953 547.129211,115.964348 549.007996,105.422974 
	C550.754944,95.621544 552.555481,85.829651 554.425598,75.519936 
	C555.498474,76.299477 556.106201,76.573891 556.479919,77.037079 
	C564.675354,87.193214 572.924744,97.308372 580.920654,107.619934 
	C581.948975,108.946068 582.276245,111.475082 581.846130,113.172676 
	C576.529663,134.153244 571.038940,155.089905 565.539978,176.023926 
	C558.051453,204.532318 550.517090,233.028687 543.240784,260.626038 
	C559.480103,267.239410 575.250061,273.661652 591.301575,280.198517 
	C601.805603,262.482452 612.500732,244.223145 623.412292,226.094147 
	C638.526611,200.982651 653.901794,176.027527 668.902039,150.848663 
	C671.077332,147.197357 673.517639,146.043472 677.489136,145.899002 
	C682.865662,145.703445 688.208923,144.717255 693.579956,144.214218 
	C700.978943,143.521240 708.390442,142.962753 716.611084,142.278900 
	C680.460510,192.660965 644.710205,242.485184 609.019592,292.226166 
	C613.683411,295.589996 618.096191,298.772736 622.528625,301.969666 
	C624.939392,298.848328 627.071411,295.977539 629.317261,293.198700 
	C640.705811,279.107300 652.220581,265.116760 663.507019,250.944183 
	C677.093506,233.883347 690.450317,216.639725 703.988953,199.540466 
	C717.120239,182.955719 730.300171,166.408386 743.615906,149.971985 
	C745.295959,147.898285 747.766846,145.496552 750.153381,145.141235 
	C758.077820,143.961411 766.125610,143.567886 774.136169,143.019531 
	C784.977905,142.277374 795.825134,141.594971 806.677917,141.043182 
	C811.083252,140.819199 815.509583,141.006210 820.496155,141.006210 
	C819.957458,148.047775 819.353455,154.285034 819.027466,160.536789 
	C818.279541,174.883575 817.858521,189.250427 816.883911,203.580521 
	C816.590271,207.899109 816.982666,212.658783 812.513916,215.941818 
	C804.787354,221.618271 797.342896,227.682709 789.847168,233.668289 
	C777.747131,243.330505 765.725220,253.090408 753.626587,262.754303 
	C740.875916,272.938934 728.080200,283.067169 715.292542,293.205414 
	C704.415649,301.828766 693.484863,310.384430 682.648926,319.058838 
	C674.755493,325.377777 666.977783,331.841278 659.056763,338.315338 
	C662.315918,342.696960 665.465942,346.931885 668.892944,351.539185 
	C719.296509,316.279053 769.376160,281.245575 820.355896,245.582413 
	C819.815735,249.775101 819.330933,252.932755 819.014099,256.107208 
	C817.972351,266.545776 817.157898,277.011719 815.830933,287.412872 
	C815.597351,289.243408 813.658020,291.389801 811.928284,292.413147 
	C795.487183,302.140198 778.877563,311.581879 762.401978,321.251495 
	C741.723572,333.387939 721.129089,345.667511 700.490540,357.872070 
	C693.681030,361.898895 686.847229,365.884613 680.132202,369.825897 
	C681.264404,371.955139 682.295166,373.569733 683.021484,375.311279 
	C688.364746,388.122955 693.753906,400.917908 698.844727,413.830017 
	C699.704407,416.010498 700.021545,417.406647 702.759216,416.699951 
	C713.406189,413.951660 724.084534,411.325012 734.750549,408.650482 
	C772.750244,399.122101 810.739136,389.549866 848.780396,380.190430 
	C850.666321,379.726410 853.487793,380.498657 855.057983,381.732971 
	C865.522278,389.958801 875.764465,398.467133 887.358765,407.928131 
	C825.765259,418.074066 765.480347,428.004425 704.907410,437.982269 
	C705.812134,443.920715 706.631104,449.296539 707.398376,454.332764 
	C716.352417,453.530640 725.177368,452.859528 733.973877,451.922089 
	C745.185059,450.727356 756.368591,449.275543 767.573120,448.015381 
	C774.411987,447.246216 781.276245,446.702637 788.114258,445.926941 
	C799.152832,444.674683 810.175171,443.280609 821.212036,442.012695 
	C827.882507,441.246368 834.575012,440.670013 841.244141,439.892792 
	C851.946838,438.645569 862.639038,437.307373 873.334534,435.998474 
	C881.110413,435.046875 888.871155,433.519531 896.664490,433.333740 
	C901.251465,433.224365 906.252808,430.122314 910.668091,434.156403 
	C913.822815,437.038788 917.059814,439.831055 920.215820,442.711975 
	C931.905884,453.383087 943.540222,464.115845 955.300415,474.708984 
	C956.894775,476.145172 959.085449,476.919281 961.000000,478.000000 
	C961.000000,479.389008 961.000000,480.777985 960.750122,482.255493 
	C957.140076,485.249084 953.766602,488.138885 950.421936,491.061737 
	C937.062439,502.736359 923.748840,514.464172 910.300232,526.035156 
	C908.980042,527.171021 906.811707,527.995056 905.104980,527.887390 
	C898.743591,527.486206 892.406067,526.674377 886.067749,525.945740 
	C874.865173,524.657959 863.673340,523.274963 852.467651,522.015930 
	C845.630798,521.247742 838.766663,520.720520 831.931885,519.936401 
	C821.062378,518.689392 810.212952,517.268127 799.343750,516.018066 
	C792.507629,515.231812 785.642151,514.700745 778.805603,513.917664 
	C767.932312,512.672180 757.070862,511.321594 746.206787,509.996674 
	C738.591797,509.068024 730.990356,508.017700 723.364380,507.192841 
	C718.041016,506.617035 712.686340,506.330688 707.575867,505.932983 
	C706.808777,511.058685 706.031433,515.550903 705.548584,520.074524 
	C705.452576,520.973877 706.344604,522.714966 707.017944,522.845459 
	C713.234619,524.049744 719.511963,524.936035 725.755188,526.009949 
	C738.226257,528.155212 750.690918,530.338501 763.150757,532.548096 
	C773.213379,534.332642 783.259460,536.210815 793.322998,537.989685 
	C805.953796,540.222351 818.594543,542.398621 831.231934,544.594055 
	C841.627808,546.400146 852.031189,548.163269 862.419495,550.012085 
	C870.291321,551.413086 878.144531,552.918884 887.373291,554.631775 
	C875.175598,564.431091 864.018250,573.394653 852.443115,582.693787 
	C802.116821,569.559265 751.354675,556.310974 701.233337,543.229919 
	C694.783386,559.236206 688.404602,575.065918 681.887085,591.239990 
	C685.438232,593.370361 689.734375,595.958923 694.041260,598.529419 
	C713.067078,609.884949 732.131409,621.176392 751.114014,632.603638 
	C771.493103,644.871643 791.833130,657.206055 812.068542,669.708374 
	C813.840759,670.803284 815.580688,673.244019 815.850098,675.258423 
	C817.174011,685.155579 818.035889,695.116089 818.973694,705.062500 
	C819.311890,708.648926 819.406494,712.258423 819.651794,716.547424 
	C769.250854,680.375610 719.466431,644.646240 669.775940,608.984314 
	C666.424500,613.680298 663.222534,618.166809 660.116638,622.518616 
	C663.592468,625.286438 666.537598,627.604919 669.454163,629.958862 
	C680.136902,638.580994 690.755920,647.282959 701.501221,655.826294 
	C713.608032,665.452026 725.881226,674.868652 737.977661,684.507141 
	C748.809387,693.137817 759.460144,701.995361 770.261414,710.664673 
	C784.857605,722.379944 799.599243,733.916199 814.064331,745.790039 
	C816.013916,747.390381 817.654297,750.439636 817.835327,752.934265 
	C818.565125,762.993286 818.667236,773.097839 818.998840,783.185669 
	C819.031677,784.183716 819.009033,785.185059 819.078735,786.180237 
	C819.858704,797.300964 820.651855,808.420776 821.507202,820.467651 
	C814.125549,819.929688 807.764526,819.358887 801.391052,819.023438 
	C787.375488,818.285583 773.329102,817.968201 759.348511,816.826538 
	C754.805481,816.455566 749.519653,817.369629 745.956177,812.487732 
	C740.309143,804.751465 734.265442,797.300964 728.289551,789.809387 
	C718.630737,777.700745 708.859985,765.681458 699.193359,753.579041 
	C689.012878,740.833435 678.894409,728.038269 668.757751,715.257629 
	C660.145813,704.399536 651.586914,693.499146 642.928101,682.678589 
	C636.611389,674.784790 630.170349,666.990601 623.701111,659.049316 
	C619.314331,662.310486 615.084778,665.454773 610.431641,668.914001 
	C645.713440,719.277222 680.793274,769.352173 716.512451,820.339722 
	C712.579956,819.790771 709.758118,819.295044 706.915100,819.018127 
	C696.148193,817.969604 685.354614,817.153870 674.622559,815.832092 
	C672.790039,815.606445 670.626648,813.675598 669.604187,811.947815 
	C659.886047,795.525635 650.454956,778.933960 640.797302,762.475525 
	C627.603394,739.990723 614.286987,717.577698 601.015442,695.138428 
	C598.006409,690.050781 594.966064,684.981567 592.051208,680.090271 
	C590.467896,680.972900 589.521667,681.622253 588.485901,682.059326 
	C575.107849,687.703918 561.779663,693.476746 548.278503,698.811279 
	C545.463501,699.923462 544.889832,700.392517 545.677734,703.521057 
	C557.839172,751.812927 569.809875,800.152832 581.713074,848.509155 
	C582.143921,850.259399 582.133850,852.846924 581.140076,854.104492 
	C572.596741,864.915894 563.779297,875.510681 554.081665,887.344116 
	C543.922241,825.685608 533.984680,765.373291 524.017639,704.881958 
	C518.059143,705.804321 512.776550,706.622009 507.512207,707.436890 
	C508.003479,711.875305 508.534668,716.373169 508.992310,720.878540 
	C509.703461,727.880249 510.265594,734.898438 511.069885,741.889038 
	C512.299744,752.578186 513.763489,763.240540 514.971680,773.932007 
	C515.800903,781.269897 516.265625,788.648560 517.070679,795.989563 
	C518.300110,807.199097 519.723877,818.387146 520.984863,829.593323 
	C521.754028,836.429504 522.299683,843.290833 523.075195,850.126221 
	C524.327271,861.161621 525.657349,872.188416 527.010071,883.212036 
	C527.921997,890.643005 529.027283,898.051941 529.808716,905.495667 
	C529.958435,906.921692 529.389526,908.776917 528.485168,909.894531 
	C525.592896,913.469360 522.404907,916.806946 519.299133,920.206848 
	C508.622620,931.894714 497.891022,943.532715 487.296692,955.294434 
	C485.858765,956.890930 485.082611,959.083435 484.000000,961.000000 
z"/>
</svg>